<?xml version="1.0" encoding="utf-8"?>
<!-- Generator: Adobe Illustrator 23.0.6, SVG Export Plug-In . SVG Version: 6.00 Build 0)  -->
<svg version="1.1" id="Layer_1" xmlns="http://www.w3.org/2000/svg" xmlns:xlink="http://www.w3.org/1999/xlink" x="0px" y="0px"
	 viewBox="0 0 294.8 209.76" style="enable-background:new 0 0 294.8 209.76;" xml:space="preserve">
<style type="text/css">
	.st0{fill:#FF0000;}
</style>
<g>
	<path class="st0" d="M258.06,103.38c22.02-23.84,21.45-61.02-1.7-84.17c-23.15-23.15-60.33-23.71-84.17-1.7l-0.04-0.04
		l-20.41,20.41l85.94,85.94l20.41-20.41L258.06,103.38z"/>
	<path class="st0" d="M131.34,17.48l-0.04,0.04C107.47-4.5,70.29-3.94,47.14,19.21c-23.15,23.15-23.71,60.33-1.7,84.17l-0.04,0.04
		l20.41,20.41l85.94-85.94L131.34,17.48z"/>
	
		<rect x="90.98" y="63.05" transform="matrix(0.7071 -0.7071 0.7071 0.7071 -43.1092 143.5717)" class="st0" width="121.54" height="121.54"/>
</g>
</svg>
